<svg width="41" height="11" viewBox="0 0 41 11" fill="none" xmlns="http://www.w3.org/2000/svg">
<path d="M0.54 10C0.446667 10 0.367333 9.972 0.302 9.916C0.246 9.85067 0.218 9.77133 0.218 9.678V0.535999C0.218 0.433333 0.246 0.354 0.302 0.298C0.367333 0.232666 0.446667 0.199999 0.54 0.199999H7.442C7.54467 0.199999 7.624 0.232666 7.68 0.298C7.74533 0.354 7.778 0.433333 7.778 0.535999V9.678C7.778 9.77133 7.74533 9.85067 7.68 9.916C7.61467 9.972 7.53533 10 7.442 10H6.728C6.63467 10 6.55533 9.972 6.49 9.916C6.434 9.85067 6.406 9.77133 6.406 9.678V1.46H1.59V9.678C1.59 9.77133 1.55733 9.85067 1.492 9.916C1.42667 9.972 1.34733 10 1.254 10H0.54ZM13.0121 10.14C11.9855 10.14 11.1875 9.85067 10.6181 9.272C10.0581 8.69333 9.75947 7.92333 9.72214 6.962L9.70814 6.36L9.72214 5.758C9.75947 4.806 10.0628 4.04067 10.6321 3.462C11.2015 2.874 11.9948 2.58 13.0121 2.58C14.0295 2.58 14.8228 2.874 15.3921 3.462C15.9615 4.04067 16.2648 4.806 16.3021 5.758C16.3115 5.86067 16.3161 6.06133 16.3161 6.36C16.3161 6.65867 16.3115 6.85933 16.3021 6.962C16.2648 7.92333 15.9615 8.69333 15.3921 9.272C14.8321 9.85067 14.0388 10.14 13.0121 10.14ZM13.0121 9.062C13.6001 9.062 14.0621 8.87533 14.3981 8.502C14.7435 8.12867 14.9301 7.592 14.9581 6.892C14.9675 6.79867 14.9721 6.62133 14.9721 6.36C14.9721 6.09867 14.9675 5.92133 14.9581 5.828C14.9301 5.128 14.7435 4.59133 14.3981 4.218C14.0621 3.84467 13.6001 3.658 13.0121 3.658C12.4241 3.658 11.9575 3.84467 11.6121 4.218C11.2668 4.59133 11.0848 5.128 11.0661 5.828L11.0521 6.36L11.0661 6.892C11.0848 7.592 11.2668 8.12867 11.6121 8.502C11.9575 8.87533 12.4241 9.062 13.0121 9.062ZM24.2572 2.72C24.3319 2.72 24.3972 2.748 24.4532 2.804C24.5185 2.86 24.5512 2.92533 24.5512 3V9.678C24.5512 9.77133 24.5185 9.85067 24.4532 9.916C24.3972 9.972 24.3225 10 24.2292 10H23.5712C23.4779 10 23.3985 9.972 23.3332 9.916C23.2772 9.85067 23.2492 9.77133 23.2492 9.678V4.596L19.3712 9.79C19.2685 9.93 19.1472 10 19.0072 10H18.3772C18.2932 10 18.2185 9.972 18.1532 9.916C18.0972 9.85067 18.0692 9.78067 18.0692 9.706V3.042C18.0692 2.94867 18.0972 2.874 18.1532 2.818C18.2185 2.75267 18.2979 2.72 18.3912 2.72H19.0632C19.1565 2.72 19.2312 2.75267 19.2872 2.818C19.3525 2.874 19.3852 2.94867 19.3852 3.042V8.096L23.2492 2.93C23.3519 2.79 23.4732 2.72 23.6132 2.72H24.2572ZM29.5405 10.14C28.5418 10.14 27.7578 9.86 27.1885 9.3C26.6285 8.73067 26.3298 7.93733 26.2925 6.92L26.2785 6.36L26.2925 5.8C26.3298 4.78267 26.6285 3.994 27.1885 3.434C27.7578 2.86467 28.5418 2.58 29.5405 2.58C30.2125 2.58 30.7818 2.70133 31.2485 2.944C31.7151 3.18667 32.0605 3.48533 32.2845 3.84C32.5178 4.19467 32.6438 4.54933 32.6625 4.904C32.6718 4.99733 32.6438 5.072 32.5785 5.128C32.5131 5.184 32.4338 5.212 32.3405 5.212H31.6685C31.5751 5.212 31.5051 5.19333 31.4585 5.156C31.4118 5.11867 31.3651 5.044 31.3185 4.932C31.1598 4.484 30.9358 4.16667 30.6465 3.98C30.3571 3.784 29.9931 3.686 29.5545 3.686C28.9758 3.686 28.5138 3.868 28.1685 4.232C27.8325 4.58667 27.6505 5.13267 27.6225 5.87L27.6085 6.374L27.6225 6.85C27.6505 7.59667 27.8325 8.14733 28.1685 8.502C28.5045 8.85667 28.9665 9.034 29.5545 9.034C29.9931 9.034 30.3571 8.94067 30.6465 8.754C30.9358 8.558 31.1598 8.236 31.3185 7.788C31.3651 7.676 31.4118 7.60133 31.4585 7.564C31.5051 7.51733 31.5751 7.494 31.6685 7.494H32.3405C32.4338 7.494 32.5131 7.52667 32.5785 7.592C32.6438 7.648 32.6718 7.72267 32.6625 7.816C32.6438 8.16133 32.5178 8.516 32.2845 8.88C32.0605 9.23467 31.7151 9.53333 31.2485 9.776C30.7911 10.0187 30.2218 10.14 29.5405 10.14ZM40.4011 9.594C40.4477 9.65 40.4711 9.71067 40.4711 9.776C40.4711 9.84133 40.4431 9.89733 40.3871 9.944C40.3404 9.98133 40.2751 10 40.1911 10H39.3371C39.1877 10 39.0664 9.93 38.9731 9.79L36.9431 6.864H35.6271V9.678C35.6271 9.77133 35.5944 9.85067 35.5291 9.916C35.4731 9.972 35.3984 10 35.3051 10H34.6471C34.5537 10 34.4744 9.972 34.4091 9.916C34.3531 9.85067 34.3251 9.77133 34.3251 9.678V3.042C34.3251 2.94867 34.3531 2.874 34.4091 2.818C34.4744 2.75267 34.5537 2.72 34.6471 2.72H35.3051C35.3984 2.72 35.4731 2.75267 35.5291 2.818C35.5944 2.874 35.6271 2.94867 35.6271 3.042V5.73H36.9151L38.7911 2.93C38.9031 2.79 39.0291 2.72 39.1691 2.72H39.8971C39.9811 2.72 40.0511 2.74333 40.1071 2.79C40.1631 2.82733 40.1911 2.87867 40.1911 2.944C40.1911 2.99067 40.1677 3.04667 40.1211 3.112L38.0351 6.206L40.4011 9.594Z" fill="#8D8D8D"/>
</svg>
